HIERARCHY
ROOT Hips
{
 OFFSET 0.000000 0.000000 0.000000
 CHANNELS 6 Xposition Yposition Zposition Yrotation Xrotation Zrotation
 JOINT Chest
 {
  OFFSET 0.000000 11.395451 -0.039534
  CHANNELS 3 Yrotation Xrotation Zrotation
  JOINT Chest2
  {
   OFFSET 0.000000 9.398669 0.071813
   CHANNELS 3 Yrotation Xrotation Zrotation
   JOINT Chest3
   {
    OFFSET 0.000000 8.489801 0.000000
    CHANNELS 3 Yrotation Xrotation Zrotation
    JOINT Chest4
    {
     OFFSET 0.000000 8.489801 0.000000
     CHANNELS 3 Yrotation Xrotation Zrotation
     JOINT Neck
     {
      OFFSET 0.000000 12.404889 0.000000
      CHANNELS 3 Yrotation Xrotation Zrotation
      JOINT Head
      {
       OFFSET 0.000000 8.903270 0.092239
       CHANNELS 3 Yrotation Xrotation Zrotation
       End Site
       {
        OFFSET 0.000000 17.592497 0.007158
       }
      }
     }
     JOINT RightCollar
     {
      OFFSET -3.196775 6.966722 0.000000
      CHANNELS 3 Yrotation Xrotation Zrotation
      JOINT RightShoulder
      {
       OFFSET -15.955896 0.000000 0.000000
       CHANNELS 3 Yrotation Xrotation Zrotation
       JOINT RightElbow
       {
        OFFSET -24.792472 0.000000 0.000000
        CHANNELS 3 Yrotation Xrotation Zrotation
        JOINT RightWrist
        {
         OFFSET -20.900115 0.000000 0.025002
         CHANNELS 3 Yrotation Xrotation Zrotation
         End Site
         {
          OFFSET -16.056692 0.000000 0.000000
         }
        }
       }
      }
     }
     JOINT LeftCollar
     {
      OFFSET 3.196775 6.966722 0.000000
      CHANNELS 3 Yrotation Xrotation Zrotation
      JOINT LeftShoulder
      {
       OFFSET 15.955896 0.000000 0.000000
       CHANNELS 3 Yrotation Xrotation Zrotation
       JOINT LeftElbow
       {
        OFFSET 24.792472 0.000000 0.000000
        CHANNELS 3 Yrotation Xrotation Zrotation
        JOINT LeftWrist
        {
         OFFSET 20.900115 0.000000 0.025002
         CHANNELS 3 Yrotation Xrotation Zrotation
         End Site
         {
          OFFSET 16.056692 0.000000 0.000000
         }
        }
       }
      }
     }
    }
   }
  }
 }
 JOINT RightHip
 {
  OFFSET -9.568995 0.193718 0.019767
  CHANNELS 3 Yrotation Xrotation Zrotation
  JOINT RightKnee
  {
   OFFSET 0.000000 -56.649296 0.015402
   CHANNELS 3 Yrotation Xrotation Zrotation
   JOINT RightAnkle
   {
    OFFSET 0.000000 -41.365147 0.021264
    CHANNELS 3 Yrotation Xrotation Zrotation
    JOINT RightToe
    {
     OFFSET 0.000000 -7.465940 17.672538
     CHANNELS 3 Yrotation Xrotation Zrotation
     End Site
     {
      OFFSET 0.000000 -1.736315 7.837145
     }
    }
   }
  }
 }
 JOINT LeftHip
 {
  OFFSET 9.568995 0.193718 0.019767
  CHANNELS 3 Yrotation Xrotation Zrotation
  JOINT LeftKnee
  {
   OFFSET 0.000000 -56.649296 0.015402
   CHANNELS 3 Yrotation Xrotation Zrotation
   JOINT LeftAnkle
   {
    OFFSET 0.000000 -41.365147 0.021264
    CHANNELS 3 Yrotation Xrotation Zrotation
    JOINT LeftToe
    {
     OFFSET 0.000000 -7.465940 17.672538
     CHANNELS 3 Yrotation Xrotation Zrotation
     End Site
     {
      OFFSET 0.000000 -1.736315 7.837145
     }
    }
   }
  }
 }
}
MOTION
Frames: 7
Frame Time: 0.016667
370.788675 105.923260 429.294976 -37.432728 18.456847 11.673009 -1.170224 2.310867 1.526884 -0.527600 1.023197 0.684301 -0.527604 1.023198 0.684302 -0.396841 0.766811 0.514097 1.102311 11.606225 -1.707719 2.857529 -14.571313 -3.755586 6.064983 -0.150603 6.324123 3.979561 -16.981012 58.633835 29.853534 -18.703321 2.455386 15.177634 -5.411046 -5.584654 2.317023 1.955210 -8.237833 5.410816 -8.839349 -71.994758 -8.161849 0.712534 -1.403094 -12.836409 -2.371672 1.663895 -13.976214 -29.920901 -14.566157 13.201303 16.813218 -3.644363 12.501374 -12.545765 11.587980 0.000000 0.000000 0.000000 7.426313 -43.272908 10.341790 3.432835 51.656960 -5.630566 1.750321 -5.548188 -12.980568 0.000000 0.000000 0.000000
371.155841 105.789430 430.294194 -37.433236 18.233412 11.409972 -1.054058 2.214325 1.400656 -0.475063 0.980960 0.627423 -0.475063 0.980960 0.627423 -0.357296 0.735233 0.471319 1.043644 11.688065 -1.679621 2.729155 -14.423115 -3.672697 6.049592 0.022256 6.414678 4.329205 -16.592286 59.217828 30.216431 -18.128348 2.984306 15.065997 -5.601318 -5.400070 2.397769 2.059739 -8.160675 6.117376 -8.557775 -71.906955 -8.163686 -0.154946 -1.371485 -12.978827 -2.881013 1.926279 -15.102614 -29.353509 -14.465784 14.164645 16.052101 -3.758189 12.293393 -12.522808 12.150136 0.000000 0.000000 -0.000000 6.033754 -41.581605 11.756833 2.752469 48.364556 -4.817694 3.439014 -6.493301 -11.577920 0.000000 -0.000000 0.000000
371.576416 105.575415 431.291992 -37.371967 18.008009 11.062347 -0.943371 2.099751 1.300744 -0.425090 0.930580 0.582274 -0.425090 0.930582 0.582273 -0.319698 0.697534 0.437341 0.984760 11.809625 -1.606895 2.579648 -14.202805 -3.502856 6.019341 0.198790 6.473061 4.362748 -16.376876 59.870763 30.237148 -17.061971 3.573492 14.915324 -5.650994 -5.086624 2.484382 2.153466 -8.098321 6.605788 -8.364321 -71.713663 -8.104284 -1.235959 -1.331163 -12.978378 -3.106858 1.917842 -15.681435 -28.888103 -14.674835 14.404743 15.758154 -3.685178 12.359938 -12.721281 12.610646 0.000000 -0.000000 -0.000000 4.313691 -39.690682 13.415141 2.686029 44.794457 -3.881641 4.734219 -7.193633 -10.480573 0.000000 0.000000 0.000000
372.028390 105.293779 432.300576 -37.280168 17.766393 10.612663 -0.835688 1.974851 1.225886 -0.376579 0.875508 0.548310 -0.376580 0.875511 0.548309 -0.283215 0.656298 0.411763 0.928994 11.956179 -1.499055 2.420617 -13.936968 -3.266764 5.984326 0.358953 6.525037 4.221873 -16.212200 60.549107 29.939748 -15.688792 4.181156 14.741233 -5.625052 -4.721017 2.572614 2.234531 -8.037940 6.981039 -8.231244 -71.445367 -8.063237 -2.471639 -1.306701 -12.905424 -3.205838 1.840739 -15.988988 -28.438039 -14.977113 14.318442 15.738265 -3.531422 12.500749 -13.074193 13.003908 0.000000 -0.000000 -0.000000 2.593993 -37.619836 15.066500 2.821892 40.981411 -2.878168 5.794511 -7.774482 -9.582333 -0.000000 -0.000000 0.000000
372.504198 104.959517 433.332152 -37.087870 17.502356 10.063893 -0.770395 1.837682 1.200491 -0.347106 0.814752 0.536532 -0.347106 0.814752 0.536532 -0.261041 0.610760 0.402855 0.863884 12.116134 -1.400976 2.248194 -13.645826 -3.045629 5.955695 0.432074 6.593039 3.999396 -15.893344 61.152732 29.543402 -14.526066 4.775368 14.596037 -5.600175 -4.418175 2.656619 2.299633 -7.984061 7.335843 -8.136406 -71.162221 -8.024280 -3.407294 -1.269290 -12.851861 -3.274531 1.776057 -15.942527 -27.805189 -15.344572 14.014660 15.783369 -3.428901 12.363894 -13.520724 13.345904 0.000000 0.000000 0.000000 1.178613 -35.630000 16.517408 2.808878 37.303635 -1.901816 6.570949 -8.395677 -8.832990 -0.000000 0.000000 -0.000000
372.989231 104.563556 434.391606 -36.768078 17.213752 9.389943 -0.769877 1.673429 1.248861 -0.346630 0.741667 0.557761 -0.346629 0.741664 0.557760 -0.260645 0.555931 0.418735 0.788067 12.305091 -1.337964 2.070024 -13.299658 -2.886759 5.941285 0.355533 6.690689 3.722222 -15.295412 61.626746 29.105041 -13.752984 5.388960 14.489844 -5.608653 -4.223008 2.740117 2.341699 -7.942727 7.730961 -8.056231 -70.880718 -7.958086 -3.822908 -1.197915 -12.854498 -3.340277 1.748293 -15.359584 -26.874093 -15.781955 13.481415 15.863517 -3.431561 11.715144 -14.089984 13.652861 0.000000 -0.000000 0.000000 0.098559 -33.784412 17.760221 2.379260 33.795520 -0.973497 6.911098 -9.237452 -8.251340 -0.000000 -0.000000 -0.000000
373.498098 104.114969 435.474053 -36.345983 16.907456 8.615632 -0.814684 1.497537 1.345324 -0.366388 0.663206 0.600494 -0.366388 0.663205 0.600493 -0.275440 0.497044 0.450762 0.703868 12.508065 -1.285049 1.880549 -12.927101 -2.744084 5.927927 0.191365 6.802732 3.372726 -14.537659 62.021954 28.566985 -13.184391 5.990246 14.406342 -5.617386 -4.092490 2.818841 2.368073 -7.908219 8.103402 -8.014993 -70.584278 -7.891446 -3.938482 -1.111145 -12.879472 -3.376352 1.730177 -14.434680 -25.762265 -16.240013 12.732852 16.014476 -3.479369 10.780009 -14.740273 13.920272 0.000000 -0.000000 0.000000 -0.734698 -32.048419 18.880860 1.788704 30.416737 -0.074283 7.000805 -10.146207 -7.850560 0.000000 0.000000 0.000000
